# xmcd CD database file generated by OrangeCD 5.0
#
# Track frame offsets:
#	150
#	20580
#	35652
#
# Disc length: 669 seconds
#
# Revision: 2
# Processed by: cddbd v1.4PL0 Copyright (c) Steve Scherf et al.
# Submitted via: OrangeCD 5.0
#
DISCID=1f029b03
DTITLE=Shania Twain - I'm Gonna Getcha Good! 
DYEAR=2002
DGENRE=Pop
TTITLE0=I'm Gonna Getcha Good! 
TTITLE1=In My Car (I'll Be The Driver) (Red)
TTITLE2=In My Car (I'll Be The Driver) (Blue)
EXTD=YEAR: 2002 ID3G: 13
EXTT0=
EXTT1=
EXTT2=
PLAYORDER=
